<svg width="74" height="74" viewBox="0 0 74 74" fill="none" xmlns="http://www.w3.org/2000/svg">
<path d="M37 32.375C37.6133 32.375 38.2015 32.6186 38.6352 33.0523C39.0689 33.486 39.3125 34.0742 39.3125 34.6875V48.5625C39.3125 49.1758 39.0689 49.764 38.6352 50.1977C38.2015 50.6314 37.6133 50.875 37 50.875C36.3867 50.875 35.7985 50.6314 35.3648 50.1977C34.9311 49.764 34.6875 49.1758 34.6875 48.5625V34.6875C34.6875 34.0742 34.9311 33.486 35.3648 33.0523C35.7985 32.6186 36.3867 32.375 37 32.375Z" fill="#EE7E01"/>
<path d="M37.0032 28.9062C37.4587 28.9062 37.9098 28.8165 38.3306 28.6422C38.7515 28.4679 39.1339 28.2124 39.456 27.8903C39.7781 27.5682 40.0336 27.1858 40.2079 26.7649C40.3822 26.3441 40.4719 25.893 40.4719 25.4375C40.4719 24.982 40.3822 24.5309 40.2079 24.1101C40.0336 23.6892 39.7781 23.3068 39.456 22.9847C39.1339 22.6626 38.7515 22.4071 38.3306 22.2328C37.9098 22.0585 37.4587 21.9687 37.0032 21.9688C36.0844 21.9688 35.2033 22.3337 34.5537 22.9834C33.904 23.633 33.5391 24.5141 33.5391 25.4329C33.5391 26.3516 33.904 27.2327 34.5537 27.8824C35.2033 28.532 36.0844 28.897 37.0032 28.897V28.9062Z" fill="#EE7E01"/>
<path d="M9.25 37C9.25 33.3558 9.96777 29.7473 11.3623 26.3805C12.7569 23.0137 14.801 19.9546 17.3778 17.3778C19.9546 14.801 23.0137 12.7569 26.3805 11.3623C29.7473 9.96778 33.3558 9.25 37 9.25C40.6442 9.25 44.2527 9.96778 47.6195 11.3623C50.9863 12.7569 54.0454 14.801 56.6222 17.3778C59.199 19.9546 61.2431 23.0137 62.6377 26.3805C64.0322 29.7473 64.75 33.3558 64.75 37C64.75 44.3598 61.8263 51.4181 56.6222 56.6222C51.4181 61.8263 44.3598 64.75 37 64.75C29.6402 64.75 22.5819 61.8263 17.3778 56.6222C12.1737 51.4181 9.25 44.3598 9.25 37ZM37 13.875C30.8669 13.875 24.9849 16.3114 20.6482 20.6482C16.3114 24.9849 13.875 30.8669 13.875 37C13.875 43.1331 16.3114 49.0151 20.6482 53.3518C24.9849 57.6886 30.8669 60.125 37 60.125C43.1331 60.125 49.0151 57.6886 53.3518 53.3518C57.6886 49.0151 60.125 43.1331 60.125 37C60.125 30.8669 57.6886 24.9849 53.3518 20.6482C49.0151 16.3114 43.1331 13.875 37 13.875Z" fill="#EE7E01"/>
</svg>
